<svg width="auto" height="auto" viewBox="0 0 200 36" fill="none" xmlns="http://www.w3.org/2000/svg">
    <path
        d="M14.12 1.92C17.8 1.92 20.6933 3.37333 22.8 6.28C24.9067 9.18666 25.96 12.84 25.96 17.24C25.96 20.8933 25.1467 24.1467 23.52 27C21.7067 30.1733 19.16 32.3733 15.88 33.6C14.0933 34.2667 12.2133 34.6 10.24 34.6C8.26667 34.6 6.44 34.3733 4.76 33.92C3.10667 33.4667 1.90667 33.0133 1.16 32.56L0 31.88C0.0266667 31.6667 0.32 29.68 0.88 25.92C2.05333 18.08 2.64 10.9733 2.64 4.6C2.64 2.49333 2.45333 0.999996 2.08 0.119995C4.93333 0.866662 6.72 2.04 7.44 3.64C9.81333 2.49333 12.04 1.92 14.12 1.92ZM9.32 31.6C11.64 31.6 13.64 30.8533 15.32 29.36C17.0267 27.8667 18.2533 26.04 19 23.88C19.7733 21.72 20.16 19.4267 20.16 17C20.16 13.5867 19.4267 10.8 17.96 8.64C16.4933 6.48 14.52 5.4 12.04 5.4C10.4933 5.4 9.13333 5.64 7.96 6.12C7.96 7.74666 7.6 11.84 6.88 18.4C6.18667 24.96 5.84 29.16 5.84 31C6.88 31.4 8.04 31.6 9.32 31.6Z"
        fill="white" />
    <path
        d="M36.0706 21C37.0306 17.5333 38.1773 14.9867 39.5106 13.36C40.8706 11.7067 42.124 10.88 43.2706 10.88C44.444 10.88 45.324 11.32 45.9106 12.2C46.4973 13.0533 46.7906 14.1733 46.7906 15.56C46.7906 16.92 46.3773 18.1733 45.5506 19.32C44.7506 20.4667 43.644 21.04 42.2306 21.04C41.8573 21.04 41.4173 20.9333 40.9106 20.72C41.7373 19.68 42.1506 18.4267 42.1506 16.96C42.1506 16.1067 41.804 15.68 41.1106 15.68C40.604 15.68 40.0573 16.04 39.4706 16.76C38.884 17.4533 38.324 18.4267 37.7906 19.68C37.2573 20.9067 36.804 22.4933 36.4306 24.44C36.084 26.36 35.9106 28.4133 35.9106 30.6C35.9106 30.8667 35.9773 32 36.1106 34C35.2573 34.0533 34.7106 34.08 34.4706 34.08C32.9506 34.08 31.8573 33.8133 31.1906 33.28C30.524 32.7467 30.1906 31.8667 30.1906 30.64C30.1906 30.1067 30.4706 28.0533 31.0306 24.48C31.5906 20.9067 31.8706 18.0667 31.8706 15.96C31.8706 13.8267 31.644 11.8667 31.1906 10.08C33.1373 10.6933 34.4973 11.5733 35.2706 12.72C36.044 13.84 36.4306 15.16 36.4306 16.68C36.4306 18.1733 36.3106 19.6133 36.0706 21Z"
        fill="white" />
    <path
        d="M49.3862 27.44C49.3862 26.32 49.5996 24.2933 50.0262 21.36C50.4529 18.4267 50.6662 16.1467 50.6662 14.52C50.6662 12.8933 50.5863 11.64 50.4263 10.76C51.0129 10.7067 51.5596 10.68 52.0662 10.68C53.6129 10.68 54.6796 10.9467 55.2663 11.48C55.8796 11.9867 56.1862 12.8667 56.1862 14.12C56.1862 14.52 55.8529 16.6267 55.1862 20.44C54.5462 24.2267 54.2129 27.36 54.1862 29.84C54.1862 32.2933 54.3463 33.88 54.6663 34.6C52.5863 34.0667 51.1863 33.2667 50.4663 32.2C49.7463 31.1067 49.3862 29.52 49.3862 27.44ZM54.8262 7.32C52.0796 7.32 50.7062 6.36 50.7062 4.44C50.7062 3.74666 50.9063 2.8 51.3063 1.6C52.0529 1.49333 52.7063 1.44 53.2663 1.44C56.0129 1.44 57.3862 2.4 57.3862 4.32C57.3862 5.01333 57.1863 5.96 56.7863 7.16C56.0396 7.26666 55.3862 7.32 54.8262 7.32Z"
        fill="white" />
    <path
        d="M69.3978 34C68.5445 34.3733 67.6511 34.56 66.7178 34.56C65.7845 34.56 65.2645 34.36 65.1578 33.96C64.7311 32.2533 64.2378 29.7067 63.6778 26.32C63.1178 22.9067 62.5445 19.9333 61.9578 17.4C61.3978 14.84 60.7178 12.9067 59.9178 11.6C61.3845 10.9067 62.5578 10.56 63.4378 10.56C64.3178 10.56 64.9845 10.76 65.4378 11.16C65.8911 11.56 66.2645 12.36 66.5578 13.56C66.8778 14.7333 67.1045 15.7067 67.2378 16.48C67.6111 19.04 67.7978 20.4667 67.7978 20.76C67.7978 21.0533 67.9045 22.2533 68.1178 24.36C68.3311 26.44 68.4911 27.8133 68.5978 28.48C73.3445 19.28 75.7178 13.1333 75.7178 10.04C77.9045 11.16 78.9978 12.3733 78.9978 13.68C78.9978 14.7467 78.4378 16.3333 77.3178 18.44C76.2245 20.52 74.8378 23.0533 73.1578 26.04C71.5045 29 70.2511 31.6533 69.3978 34Z"
        fill="white" />
    <path
        d="M91.0228 24.16C89.7428 24.16 88.4895 24.0133 87.2628 23.72C87.2361 23.9867 87.2228 24.4 87.2228 24.96C87.2228 27.1733 87.6361 28.84 88.4628 29.96C89.2895 31.08 90.2761 31.64 91.4228 31.64C92.5695 31.64 93.6628 31.2933 94.7028 30.6C95.7428 29.9067 96.6495 28.9467 97.4228 27.72C98.3828 27.9333 98.8628 28.4267 98.8628 29.2C96.5161 32.8 93.4895 34.6 89.7828 34.6C87.5428 34.6 85.5828 33.7467 83.9028 32.04C82.2228 30.3067 81.3828 27.9067 81.3828 24.84C81.3828 22.5467 81.8228 20.3733 82.7028 18.32C83.5828 16.24 84.9828 14.4933 86.9028 13.08C88.8228 11.64 90.9428 10.92 93.2628 10.92C95.6095 10.92 97.3295 11.4533 98.4228 12.52C99.5161 13.5867 100.063 14.9867 100.063 16.72C100.063 19.2267 99.1828 21.0933 97.4228 22.32C95.6895 23.5467 93.5561 24.16 91.0228 24.16ZM92.7028 13.4C91.3428 13.4 90.1961 14.24 89.2628 15.92C88.3295 17.6 87.7161 19.64 87.4228 22.04H88.0228C90.3428 22.04 92.0495 21.44 93.1428 20.24C94.2628 19.04 94.8228 17.6 94.8228 15.92C94.8228 15.2267 94.6361 14.64 94.2628 14.16C93.9161 13.6533 93.3961 13.4 92.7028 13.4Z"
        fill="white" />
    <path
        d="M118.246 20.64L114.406 20.6C113.232 20.6 112.339 20.6133 111.726 20.64C111.326 24.1867 111.112 27.2267 111.086 29.76C117.352 29.76 122.006 29.2533 125.046 28.24C124.806 30.2133 124.206 31.7467 123.246 32.84C122.286 33.9333 121.086 34.48 119.646 34.48C119.219 34.48 118.019 34.36 116.046 34.12C114.099 33.9067 112.032 33.8 109.846 33.8C107.659 33.8 105.526 34.0267 103.446 34.48C103.739 33.2267 104.379 32.2 105.366 31.4V31.24C105.366 29.8 105.739 26.52 106.486 21.4C105.819 21.64 105.246 21.8533 104.766 22.04C104.712 21.4533 104.686 21.0133 104.686 20.72C104.686 18.9333 105.472 17.8 107.046 17.32C107.526 13.8 107.846 10.6267 108.006 7.8C107.019 7.74666 106.392 7.52 106.126 7.12C105.859 6.72 105.726 5.93333 105.726 4.76C105.806 3.56 105.912 2.77333 106.046 2.4C109.032 2.8 112.326 3 115.926 3C119.552 3 123.046 2.68 126.406 2.04C126.032 4.84 124.326 6.52 121.286 7.08C119.499 7.42666 116.846 7.65333 113.326 7.76C113.299 8.05333 112.912 11.1467 112.166 17.04C113.766 17.0933 114.872 17.12 115.486 17.12C118.019 17.12 119.819 16.68 120.886 15.8C120.939 16.3333 120.966 16.7333 120.966 17C120.966 19.4267 120.059 20.64 118.246 20.64Z"
        fill="white" />
    <path
        d="M134.44 26.44C134.44 27.6933 134.667 28.72 135.12 29.52C135.6 30.2933 136.267 30.68 137.12 30.68C138.373 30.68 139.56 29.9467 140.68 28.48C141.827 27.0133 142.733 25.1333 143.4 22.84C144.093 20.5467 144.44 18.3733 144.44 16.32C144.44 14.24 144.36 12.56 144.2 11.28C145 11.2267 145.56 11.2 145.88 11.2C147.24 11.2 148.267 11.4533 148.96 11.96C149.653 12.4667 150 13.3733 150 14.68C150 15.1867 149.68 17.2533 149.04 20.88C148.4 24.48 148.08 27.3733 148.08 29.56C148.08 31.72 148.493 33.64 149.32 35.32C147.32 34.9733 145.853 34.24 144.92 33.12C143.987 31.9733 143.52 30.3333 143.52 28.2C143.52 27.8267 143.573 27.1067 143.68 26.04C142.96 28.5733 141.68 30.6133 139.84 32.16C138 33.7067 136.187 34.48 134.4 34.48C132.64 34.48 131.213 33.8267 130.12 32.52C129.053 31.1867 128.52 29.3067 128.52 26.88C128.52 24.4533 128.947 22.1067 129.8 19.84C130.68 17.5467 131.987 15.6133 133.72 14.04C135.453 12.44 137.387 11.64 139.52 11.64C140.747 11.64 142 11.9333 143.28 12.52C140.587 13.48 138.44 15.3733 136.84 18.2C135.24 21 134.44 23.7467 134.44 26.44Z"
        fill="white" />
    <path
        d="M163.751 13.28C163.004 13.28 162.337 13.5333 161.751 14.04C161.164 14.52 160.871 15.2133 160.871 16.12C160.871 17.0267 161.177 17.88 161.791 18.68C162.431 19.48 163.204 20.1867 164.111 20.8C165.017 21.3867 165.924 22 166.831 22.64C167.764 23.2533 168.577 24.0267 169.271 24.96C169.964 25.8667 170.351 26.88 170.431 28C170.431 29.92 169.604 31.5333 167.951 32.84C166.297 34.1467 164.244 34.8 161.791 34.8C159.337 34.8 157.404 34.3067 155.991 33.32C154.604 32.3333 153.911 31.2 153.911 29.92C153.911 28.64 154.297 27.6133 155.071 26.84C155.871 26.04 156.857 25.64 158.031 25.64C158.644 25.64 159.217 25.7467 159.751 25.96C158.897 26.8667 158.471 27.8267 158.471 28.84C158.471 29.8533 158.751 30.6667 159.311 31.28C159.871 31.8933 160.631 32.2 161.591 32.2C162.551 32.2 163.351 31.96 163.991 31.48C164.657 30.9733 164.991 30.3333 164.991 29.56C164.991 28.76 164.764 28.0533 164.311 27.44C163.857 26.8267 163.284 26.2933 162.591 25.84C161.924 25.36 161.191 24.8267 160.391 24.24C159.591 23.6533 158.844 23.0667 158.151 22.48C157.484 21.8667 156.924 21.1067 156.471 20.2C156.017 19.2667 155.791 18.2533 155.791 17.16C155.791 15.2667 156.564 13.72 158.111 12.52C159.684 11.2933 161.631 10.68 163.951 10.68C166.297 10.68 168.004 11.1333 169.071 12.04C170.164 12.9467 170.711 14.0133 170.711 15.24C170.711 16.44 170.324 17.4667 169.551 18.32C168.804 19.1733 167.831 19.6 166.631 19.6C166.044 19.6 165.377 19.48 164.631 19.24C165.217 18.7333 165.671 18.16 165.991 17.52C166.311 16.8533 166.471 16.2 166.471 15.56C166.471 14.92 166.204 14.3867 165.671 13.96C165.137 13.5067 164.497 13.28 163.751 13.28Z"
        fill="white" />
    <path
        d="M184.109 24.16C182.829 24.16 181.575 24.0133 180.349 23.72C180.322 23.9867 180.309 24.4 180.309 24.96C180.309 27.1733 180.722 28.84 181.549 29.96C182.375 31.08 183.362 31.64 184.509 31.64C185.655 31.64 186.749 31.2933 187.789 30.6C188.829 29.9067 189.735 28.9467 190.509 27.72C191.469 27.9333 191.949 28.4267 191.949 29.2C189.602 32.8 186.575 34.6 182.869 34.6C180.629 34.6 178.669 33.7467 176.989 32.04C175.309 30.3067 174.469 27.9067 174.469 24.84C174.469 22.5467 174.909 20.3733 175.789 18.32C176.669 16.24 178.069 14.4933 179.989 13.08C181.909 11.64 184.029 10.92 186.349 10.92C188.695 10.92 190.415 11.4533 191.509 12.52C192.602 13.5867 193.149 14.9867 193.149 16.72C193.149 19.2267 192.269 21.0933 190.509 22.32C188.775 23.5467 186.642 24.16 184.109 24.16ZM185.789 13.4C184.429 13.4 183.282 14.24 182.349 15.92C181.415 17.6 180.802 19.64 180.509 22.04H181.109C183.429 22.04 185.135 21.44 186.229 20.24C187.349 19.04 187.909 17.6 187.909 15.92C187.909 15.2267 187.722 14.64 187.349 14.16C187.002 13.6533 186.482 13.4 185.789 13.4Z"
        fill="white" />
</svg>